HIERARCHY
ROOT Hips
{
 OFFSET 0.000000 0.000000 0.000000
 CHANNELS 6 Xposition Yposition Zposition Yrotation Xrotation Zrotation
 JOINT Chest
 {
  OFFSET 0.000000 9.588913 -0.003946
  CHANNELS 3 Yrotation Xrotation Zrotation
  JOINT Chest2
  {
   OFFSET 0.000000 9.541882 0.008053
   CHANNELS 3 Yrotation Xrotation Zrotation
   JOINT Chest3
   {
    OFFSET 0.000000 9.501360 0.000000
    CHANNELS 3 Yrotation Xrotation Zrotation
    JOINT Chest4
    {
     OFFSET 0.000000 9.491660 0.000000
     CHANNELS 3 Yrotation Xrotation Zrotation
     JOINT Neck
     {
      OFFSET 0.000000 14.331917 0.000000
      CHANNELS 3 Yrotation Xrotation Zrotation
      JOINT Head
      {
       OFFSET 0.000000 8.884799 0.017034
       CHANNELS 3 Yrotation Xrotation Zrotation
       End Site
       {
        OFFSET 0.000000 16.896195 0.008993
       }
      }
     }
     JOINT RightCollar
     {
      OFFSET -2.923010 9.499495 0.000000
      CHANNELS 3 Yrotation Xrotation Zrotation
      JOINT RightShoulder
      {
       OFFSET -13.795216 0.000000 0.000000
       CHANNELS 3 Yrotation Xrotation Zrotation
       JOINT RightElbow
       {
        OFFSET -30.272209 0.000000 0.000000
        CHANNELS 3 Yrotation Xrotation Zrotation
        JOINT RightWrist
        {
         OFFSET -24.478199 0.000000 0.000000
         CHANNELS 3 Yrotation Xrotation Zrotation
         End Site
         {
          OFFSET -18.090752 0.000000 0.000000
         }
        }
       }
      }
     }
     JOINT LeftCollar
     {
      OFFSET 2.923010 9.499495 0.000000
      CHANNELS 3 Yrotation Xrotation Zrotation
      JOINT LeftShoulder
      {
       OFFSET 13.795216 0.000000 0.000000
       CHANNELS 3 Yrotation Xrotation Zrotation
       JOINT LeftElbow
       {
        OFFSET 30.272209 0.000000 0.000000
        CHANNELS 3 Yrotation Xrotation Zrotation
        JOINT LeftWrist
        {
         OFFSET 24.478199 0.000000 0.000000
         CHANNELS 3 Yrotation Xrotation Zrotation
         End Site
         {
          OFFSET 18.090752 0.000000 0.000000
         }
        }
       }
      }
     }
    }
   }
  }
 }
 JOINT RightHip
 {
  OFFSET -7.826875 0.019532 0.001973
  CHANNELS 3 Yrotation Xrotation Zrotation
  JOINT RightKnee
  {
   OFFSET 0.000000 -40.546152 -0.001885
   CHANNELS 3 Yrotation Xrotation Zrotation
   JOINT RightAnkle
   {
    OFFSET 0.000000 -39.417092 -0.003189
    CHANNELS 3 Yrotation Xrotation Zrotation
    JOINT RightToe
    {
     OFFSET 0.000000 -7.579396 17.243563
     CHANNELS 3 Yrotation Xrotation Zrotation
     End Site
     {
      OFFSET 0.000000 -1.500329 6.694466
     }
    }
   }
  }
 }
 JOINT LeftHip
 {
  OFFSET 7.826875 0.019532 0.001973
  CHANNELS 3 Yrotation Xrotation Zrotation
  JOINT LeftKnee
  {
   OFFSET 0.000000 -40.546152 -0.001885
   CHANNELS 3 Yrotation Xrotation Zrotation
   JOINT LeftAnkle
   {
    OFFSET 0.000000 -39.417092 -0.003189
    CHANNELS 3 Yrotation Xrotation Zrotation
    JOINT LeftToe
    {
     OFFSET 0.000000 -7.579396 17.243563
     CHANNELS 3 Yrotation Xrotation Zrotation
     End Site
     {
      OFFSET 0.000000 -1.500329 6.694466
     }
    }
   }
  }
 }
}
MOTION
Frames: 17
Frame Time: 0.008333
0.000000 87.345680 0.000000 0.000000 -5.767889 0.000000 0.000000 11.653876 0.000000 0.000000 -5.885988 0.000000 0.000000 -0.000000 0.000000 0.000000 -0.000000 0.000000 0.000000 12.528808 0.000000 0.000000 0.711711 0.000000 0.000000 -0.000000 0.000000 0.000000 -0.000000 0.000000 2.309063 -0.000000 0.000000 -2.309063 -0.000000 -0.000000 0.000000 -0.000000 0.000000 0.000000 0.000000 0.000000 -2.309063 0.000000 0.000000 2.309063 -0.000000 0.000000 0.000000 8.520374 0.000000 0.000000 1.905768 0.000000 -0.000000 -4.658254 0.000000 0.000000 -0.000000 0.000000 0.000000 8.520374 0.000000 0.000000 1.905768 0.000000 -0.000000 -4.658254 0.000000 0.000000 -0.000000 0.000000
-7.710030 89.206634 -3.905513 -144.593685 -7.279823 0.416003 12.965654 3.963616 0.125746 7.403264 2.281550 -0.068621 9.255490 2.851834 -0.039651 7.403265 2.281551 -0.068621 -0.525444 25.414543 0.862726 -1.137919 11.413477 1.663587 -7.605132 -3.608997 -1.771865 2.799838 -23.311942 59.982280 30.746953 23.046998 9.518953 11.063516 -8.834504 -2.526455 -15.801308 -0.671985 1.477393 18.194537 -7.504998 -87.389467 -25.040186 -11.125692 -29.650061 -16.937602 -5.682066 4.331745 -20.879664 8.185283 -2.493349 -1.733953 1.707447 0.348106 5.653754 -3.208763 -0.793121 -0.027804 0.017327 -0.038148 -10.814262 8.451522 -1.350515 -15.827171 2.319109 0.000734 -1.461953 -3.810917 0.030087 0.016008 -0.100920 -0.000004
-7.710686 89.205915 -3.929812 -144.526337 -7.261128 0.414749 12.984590 3.956457 0.115730 7.414490 2.276168 -0.075566 9.269474 2.845248 -0.048367 7.414490 2.276169 -0.075565 -0.544171 25.443567 0.887340 -1.176660 11.468116 1.711586 -7.619869 -3.634971 -1.773811 2.693890 -23.165089 60.057823 30.995738 22.928074 9.461799 11.019802 -8.778722 -2.526463 -15.807881 -0.676559 1.498405 18.177656 -7.569263 -87.403739 -25.192492 -11.000870 -29.723461 -16.254265 -5.583906 4.164989 -20.913308 8.196911 -2.484784 -1.741157 1.688829 0.342917 5.627784 -3.213229 -0.788498 -0.027732 0.021944 -0.035205 -10.796149 8.449315 -1.331064 -15.857978 2.304736 0.002132 -1.508280 -3.807061 0.027508 0.016913 -0.099480 -0.000740
-7.712491 89.204998 -3.959024 -144.449982 -7.240501 0.413711 12.999126 3.946669 0.104245 7.423286 2.269499 -0.082709 9.280418 2.837058 -0.057374 7.423286 2.269499 -0.082709 -0.559838 25.469798 0.913504 -1.210300 11.517559 1.761669 -7.638984 -3.662152 -1.770153 2.562317 -22.987331 60.150778 31.279770 22.812368 9.441583 10.962691 -8.726644 -2.518569 -15.811755 -0.680119 1.519746 18.161414 -7.629290 -87.416461 -25.333956 -10.846993 -29.778046 -15.608980 -5.472345 3.999437 -20.947443 8.213031 -2.475739 -1.750592 1.665877 0.338436 5.596111 -3.219726 -0.785993 -0.027909 0.026208 -0.031453 -10.784878 8.446724 -1.311718 -15.890936 2.292092 0.000935 -1.546064 -3.805535 0.026520 0.017692 -0.098885 -0.000850
-7.715963 89.203899 -3.992258 -144.365645 -7.218530 0.413807 13.009929 3.933968 0.092674 7.430146 2.261524 -0.089529 9.288942 2.827233 -0.066017 7.430146 2.261525 -0.089529 -0.572365 25.493127 0.939902 -1.238402 11.561579 1.811468 -7.661840 -3.690842 -1.763239 2.407868 -22.767777 60.258221 31.598387 22.694235 9.455024 10.890131 -8.675234 -2.500676 -15.816484 -0.682562 1.537551 18.150867 -7.680855 -87.426674 -25.472534 -10.654953 -29.805556 -14.996156 -5.352263 3.840451 -20.981543 8.231572 -2.468695 -1.757490 1.642056 0.334948 5.559210 -3.229300 -0.784678 -0.027565 0.030122 -0.027052 -10.775313 8.444949 -1.291773 -15.923238 2.278167 -0.001396 -1.591598 -3.804595 0.026006 0.018038 -0.098804 -0.000691
-7.721352 89.202713 -4.029192 -144.274030 -7.198175 0.412599 13.017871 3.919251 0.082137 7.435528 2.252780 -0.095234 9.295624 2.816423 -0.073289 7.435529 2.252781 -0.095234 -0.582010 25.513243 0.965686 -1.261241 11.599582 1.859537 -7.693325 -3.710319 -1.757318 2.240376 -22.510259 60.384795 31.946739 22.572103 9.493907 10.804309 -8.626477 -2.470480 -15.826617 -0.683729 1.549858 18.141604 -7.721013 -87.431142 -25.615712 -10.427985 -29.791502 -14.396814 -5.226005 3.681769 -21.014187 8.254503 -2.460831 -1.762368 1.620199 0.329202 5.516732 -3.242669 -0.781906 -0.026628 0.033130 -0.022857 -10.764906 8.447086 -1.268891 -15.951464 2.263445 -0.004054 -1.654358 -3.805841 0.025889 0.018003 -0.098116 -0.000703
-7.728890 89.201545 -4.069405 -144.175854 -7.181430 0.408565 13.022035 3.904528 0.072310 7.438546 2.244039 -0.100166 9.299355 2.805602 -0.079611 7.438546 2.244039 -0.100166 -0.587932 25.529230 0.990895 -1.277340 11.629846 1.905767 -7.739928 -3.697872 -1.753107 2.083493 -22.240925 60.531154 32.312283 22.450373 9.550166 10.703625 -8.585564 -2.423109 -15.837618 -0.684282 1.556766 18.117956 -7.748882 -87.423026 -25.768489 -10.182002 -29.727185 -13.782035 -5.094231 3.519981 -21.042092 8.284465 -2.449211 -1.769018 1.599486 0.319846 5.463787 -3.258451 -0.777445 -0.025314 0.034631 -0.019011 -10.755052 8.454336 -1.243303 -15.976981 2.250466 -0.007544 -1.727986 -3.811351 0.027019 0.017265 -0.096227 -0.000778
-7.739019 89.200456 -4.111868 -144.071681 -7.167344 0.404329 13.020583 3.890831 0.062782 7.437977 2.235703 -0.105027 9.298603 2.795286 -0.085858 7.437977 2.235703 -0.105027 -0.588751 25.540491 1.014700 -1.284059 11.651215 1.948376 -7.797919 -3.644506 -1.748529 1.952551 -21.973638 60.685949 32.684190 22.332991 9.623169 10.581505 -8.558722 -2.357137 -15.844630 -0.682751 1.557160 18.074854 -7.763664 -87.400813 -25.933825 -9.932726 -29.619917 -13.118190 -4.949431 3.359655 -21.065707 8.319291 -2.438557 -1.778674 1.579424 0.309748 5.405172 -3.276170 -0.771418 -0.023413 0.035349 -0.015641 -10.749639 8.465328 -1.220083 -16.003513 2.238781 -0.010251 -1.801939 -3.819204 0.029586 0.015913 -0.094040 -0.001143
-7.751911 89.199498 -4.155904 -143.964011 -7.155055 0.401150 13.013512 3.877568 0.053786 7.434051 2.227481 -0.109299 9.293658 2.785101 -0.091388 7.434052 2.227481 -0.109299 -0.584145 25.547342 1.035162 -1.280381 11.664226 1.983821 -7.851786 -3.561822 -1.742853 1.834751 -21.699498 60.837858 33.061831 22.222776 9.722928 10.433260 -8.548974 -2.276728 -15.849798 -0.675062 1.547856 18.023865 -7.765357 -87.367459 -26.109106 -9.689034 -29.487000 -12.380084 -4.779390 3.205715 -21.087029 8.356029 -2.430917 -1.792167 1.562290 0.299600 5.346382 -3.297400 -0.763149 -0.021452 0.036132 -0.013274 -10.750439 8.481228 -1.201119 -16.032611 2.223595 -0.010538 -1.870993 -3.826098 0.032333 0.014413 -0.091897 -0.001393
-7.767331 89.198683 -4.201061 -143.854816 -7.143034 0.398205 13.001344 3.863347 0.045515 7.427281 2.218636 -0.112762 9.285162 2.774120 -0.095936 7.427282 2.218635 -0.112762 -0.574736 25.550273 1.051308 -1.267194 11.669776 2.010505 -7.898067 -3.461882 -1.734554 1.720904 -21.411289 60.980871 33.443418 22.115857 9.858535 10.260903 -8.552954 -2.183666 -15.852881 -0.659793 1.529505 17.979000 -7.750085 -87.330375 -26.287625 -9.447640 -29.339574 -11.567219 -4.581787 3.057252 -21.107799 8.392153 -2.422842 -1.809716 1.549840 0.286094 5.287502 -3.323189 -0.752024 -0.019847 0.037037 -0.011521 -10.758672 8.501212 -1.185958 -16.062497 2.203942 -0.008705 -1.929847 -3.832195 0.034271 0.013417 -0.089154 -0.000320
-7.785000 89.198003 -4.247119 -143.747919 -7.130610 0.394517 12.986192 3.848196 0.037762 7.418831 2.209071 -0.115597 9.274569 2.762229 -0.099724 7.418832 2.209070 -0.115598 -0.561466 25.548175 1.063064 -1.246184 11.665824 2.028519 -7.947955 -3.353378 -1.718305 1.615979 -21.107037 61.110804 33.823289 22.002667 10.032219 10.068488 -8.567111 -2.078554 -15.851734 -0.639750 1.508266 17.952328 -7.712360 -87.300159 -26.458953 -9.197014 -29.187515 -10.704091 -4.365493 2.908240 -21.126945 8.425300 -2.412491 -1.830702 1.545235 0.268343 5.230579 -3.354010 -0.738323 -0.018393 0.037375 -0.010021 -10.772258 8.522823 -1.171347 -16.088862 2.182983 -0.006797 -1.987786 -3.839380 0.035653 0.012358 -0.085801 0.001764
-7.804937 89.197477 -4.294187 -143.648590 -7.119873 0.390195 12.970867 3.833192 0.030978 7.410300 2.199363 -0.117443 9.263880 2.750138 -0.102278 7.410301 2.199363 -0.117443 -0.545731 25.540125 1.070200 -1.219811 11.650681 2.037782 -8.005648 -3.243114 -1.692761 1.517190 -20.781508 61.233851 34.198502 21.877846 10.237726 9.861305 -8.584554 -1.968877 -15.847519 -0.617293 1.488793 17.953536 -7.652300 -87.283040 -26.607332 -8.937509 -29.044157 -9.815757 -4.139949 2.753317 -21.142543 8.456156 -2.402035 -1.853723 1.550454 0.249553 5.177528 -3.389771 -0.724820 -0.017123 0.036739 -0.008037 -10.787186 8.547352 -1.156350 -16.110135 2.162644 -0.005465 -2.050832 -3.848067 0.037277 0.010705 -0.082674 0.003888
-7.826797 89.197071 -4.342202 -143.559060 -7.110930 0.384578 12.957243 3.817758 0.026465 7.402975 2.189628 -0.117879 9.254707 2.737985 -0.103064 7.402976 2.189627 -0.117879 -0.528807 25.527148 1.073317 -1.190474 11.626290 2.039644 -8.074112 -3.132791 -1.663227 1.423620 -20.428491 61.366315 34.562450 21.734685 10.450386 9.640564 -8.597269 -1.853763 -15.842806 -0.593674 1.471727 17.985806 -7.573450 -87.279334 -26.717763 -8.679407 -28.918805 -8.918632 -3.911994 2.592944 -21.155041 8.486299 -2.393599 -1.875331 1.562344 0.233671 5.132661 -3.428239 -0.714690 -0.015774 0.035165 -0.004281 -10.802482 8.576192 -1.144228 -16.128006 2.143282 -0.001194 -2.104031 -3.858412 0.039460 0.010060 -0.079785 0.005641
-7.850037 89.196732 -4.390948 -143.478782 -7.102615 0.377121 12.946620 3.801975 0.023612 7.397549 2.179996 -0.117456 9.247914 2.725944 -0.102763 7.397550 2.179996 -0.117456 -0.510653 25.510009 1.074529 -1.158571 11.594110 2.037860 -8.154312 -3.026440 -1.631983 1.333507 -20.042210 61.521260 34.913078 21.566824 10.648132 9.399663 -8.604868 -1.724767 -15.839203 -0.571130 1.458616 18.039608 -7.481188 -87.285317 -26.779757 -8.431652 -28.810257 -8.029859 -3.690266 2.432709 -21.165633 8.515916 -2.386226 -1.893046 1.578127 0.220674 5.094560 -3.467735 -0.707418 -0.014214 0.032702 0.000514 -10.820087 8.608093 -1.135348 -16.142529 2.125244 0.008545 -2.145926 -3.870923 0.040480 0.010568 -0.076677 0.007110
-7.874699 89.196500 -4.440415 -143.406663 -7.096926 0.370134 12.939120 3.788025 0.021431 7.393809 2.171311 -0.116851 9.243231 2.715081 -0.102204 7.393809 2.171311 -0.116851 -0.490670 25.488896 1.074735 -1.123227 11.554500 2.033897 -8.233005 -2.929079 -1.594876 1.227638 -19.619525 61.707317 35.259099 21.392212 10.824739 9.149438 -8.612826 -1.592486 -15.834616 -0.551913 1.451010 18.091886 -7.378358 -87.297353 -26.791858 -8.204316 -28.702901 -7.166215 -3.484195 2.276229 -21.176587 8.545916 -2.380400 -1.905066 1.598322 0.208477 5.053204 -3.509310 -0.701995 -0.013105 0.029829 0.005242 -10.843923 8.643343 -1.130182 -16.152902 2.108919 0.021095 -2.182075 -3.885197 0.040374 0.010962 -0.073846 0.008444
-7.900787 89.196466 -4.490843 -143.343152 -7.096885 0.365621 12.934466 3.776501 0.020875 7.391511 2.164076 -0.115737 9.240356 2.706020 -0.100972 7.391511 2.164076 -0.115737 -0.468834 25.465265 1.073460 -1.084269 11.510154 2.026878 -8.306236 -2.826444 -1.546774 1.098258 -19.176155 61.931247 35.603986 21.244905 10.977542 8.919808 -8.630978 -1.483072 -15.826078 -0.536244 1.444921 18.126568 -7.263756 -87.311156 -26.762252 -8.000149 -28.580251 -6.333951 -3.295817 2.125986 -21.189517 8.579009 -2.379709 -1.911237 1.621889 0.197647 5.010668 -3.552776 -0.698849 -0.012600 0.026873 0.010057 -10.874619 8.684319 -1.130307 -16.159103 2.094366 0.034242 -2.211502 -3.900379 0.041363 0.011451 -0.072168 0.008780
-7.927536 89.196632 -4.542124 -143.288000 -7.100912 0.363186 12.932159 3.765349 0.022249 7.390475 2.157601 -0.113990 9.239063 2.697895 -0.098925 7.390475 2.157601 -0.113990 -0.445634 25.440927 1.071629 -1.042750 11.464463 2.018547 -8.386951 -2.698712 -1.484675 0.956556 -18.737228 62.185916 35.946794 21.138581 11.117333 8.726828 -8.670427 -1.411994 -15.813615 -0.520240 1.435432 18.139410 -7.141472 -87.322130 -26.697314 -7.815285 -28.437612 -5.536203 -3.117789 1.988194 -21.203990 8.615345 -2.384857 -1.914622 1.645261 0.189238 4.977110 -3.595997 -0.696727 -0.011804 0.023952 0.014222 -10.910394 8.729123 -1.134702 -16.160738 2.082008 0.046667 -2.230882 -3.916103 0.043855 0.012931 -0.071764 0.008716
